<svg width="175" height="16" viewBox="0 0 175 16" fill="none" xmlns="http://www.w3.org/2000/svg">
<path d="M0.44 15V0.899999H2.76L10.42 10.64H9.88V0.899999H12.78V15H10.46L2.82 5.26H3.34V15H0.44ZM15.6353 15V0.899999H25.4353V3.32H18.6153V6.62H24.9553V9.06H18.6153V12.58H25.4353V15H15.6353ZM31.568 15L26.568 0.899999H29.788L33.368 11.78H32.508L36.408 0.899999H38.688L42.268 11.78H41.468L45.268 0.899999H48.288L43.248 15H40.708L37.248 4.98H37.708L34.128 15H31.568ZM54.9541 15.22C53.8207 15.22 52.7607 15.08 51.7741 14.8C50.7874 14.52 49.9474 14.1333 49.2541 13.64L50.1741 11.2C50.6274 11.5067 51.1074 11.7667 51.6141 11.98C52.1207 12.1933 52.6541 12.36 53.2141 12.48C53.7741 12.5867 54.3607 12.64 54.9741 12.64C55.9341 12.64 56.6141 12.4933 57.0141 12.2C57.4274 11.9067 57.6341 11.5333 57.6341 11.08C57.6341 10.6667 57.4941 10.3533 57.2141 10.14C56.9474 9.91333 56.4541 9.72 55.7341 9.56L53.3741 9.08C52.0807 8.81333 51.1141 8.36 50.4741 7.72C49.8341 7.08 49.5141 6.22667 49.5141 5.16C49.5141 4.25333 49.7541 3.46667 50.2341 2.8C50.7141 2.13333 51.3874 1.61333 52.2541 1.24C53.1341 0.866666 54.1607 0.68 55.3341 0.68C56.3341 0.68 57.2674 0.819999 58.1341 1.1C59.0007 1.38 59.7141 1.78 60.2741 2.3L59.3541 4.58C58.8074 4.14 58.1941 3.81333 57.5141 3.6C56.8474 3.37333 56.1007 3.26 55.2741 3.26C54.4074 3.26 53.7407 3.41333 53.2741 3.72C52.8207 4.02667 52.5941 4.44667 52.5941 4.98C52.5941 5.38 52.7341 5.70667 53.0141 5.96C53.2941 6.2 53.7874 6.39333 54.4941 6.54L56.8141 7C58.1341 7.26667 59.1141 7.71333 59.7541 8.34C60.3941 8.96667 60.7141 9.8 60.7141 10.84C60.7141 11.72 60.4741 12.4867 59.9941 13.14C59.5274 13.7933 58.8607 14.3067 57.9941 14.68C57.1407 15.04 56.1274 15.22 54.9541 15.22ZM63.0181 15V0.899999H69.5181C71.0648 0.899999 72.2581 1.22667 73.0981 1.88C73.9381 2.53333 74.3581 3.42667 74.3581 4.56C74.3581 5.4 74.1048 6.11333 73.5981 6.7C73.1048 7.28667 72.4248 7.68 71.5581 7.88V7.56C72.5715 7.73333 73.3515 8.12 73.8981 8.72C74.4581 9.30667 74.7381 10.0733 74.7381 11.02C74.7381 12.2733 74.2915 13.2533 73.3981 13.96C72.5181 14.6533 71.2981 15 69.7381 15H63.0181ZM65.9981 12.68H69.3581C70.1315 12.68 70.7248 12.5333 71.1381 12.24C71.5515 11.9467 71.7581 11.48 71.7581 10.84C71.7581 10.1867 71.5515 9.72 71.1381 9.44C70.7248 9.14667 70.1315 9 69.3581 9H65.9981V12.68ZM65.9981 6.7H68.9581C69.7715 6.7 70.3715 6.55333 70.7581 6.26C71.1448 5.96667 71.3381 5.52667 71.3381 4.94C71.3381 4.36667 71.1448 3.93333 70.7581 3.64C70.3715 3.34667 69.7715 3.2 68.9581 3.2H65.9981V6.7ZM75.2253 15L81.7053 0.899999H84.2853L90.8453 15H87.6853L85.9853 11.08L87.2053 11.94H78.8253L80.0653 11.08L78.3653 15H75.2253ZM82.9853 4.18L80.4053 10.3L79.8653 9.54H86.1653L85.7053 10.3L83.0653 4.18H82.9853ZM92.0611 15V0.899999H101.861V3.32H95.0411V6.62H101.381V9.06H95.0411V12.58H101.861V15H92.0611ZM112.989 15V2.3H108.009V0.899999H119.609V2.3H114.649V15H112.989ZM121.639 15V0.899999H123.299V7.14H131.799V0.899999H133.439V15H131.799V8.56H123.299V15H121.639ZM136.951 15V0.899999H145.951V2.26H138.571V7.16H145.511V8.54H138.571V13.62H145.951V15H136.951ZM148.729 15V0.899999H150.169L155.829 13.68H155.249L160.909 0.899999H162.349V15H160.829V3.04H161.429L156.089 15H154.989L149.629 3.04H150.229V15H148.729ZM165.877 15V0.899999H174.877V2.26H167.497V7.16H174.437V8.54H167.497V13.62H174.877V15H165.877Z" fill="#333333"/>
</svg>
